<?xml version="1.0" encoding="UTF-8"?>
<!DOCTYPE svg PUBLIC "-//W3C//DTD SVG 1.1//EN" "http://www.w3.org/Graphics/SVG/1.1/DTD/svg11.dtd">
<!-- Creator: CorelDRAW (Versión OEM) -->
<svg xmlns="http://www.w3.org/2000/svg" xml:space="preserve" width="29.7631mm" height="31.4363mm" version="1.1" style="shape-rendering:geometricPrecision; text-rendering:geometricPrecision; image-rendering:optimizeQuality; fill-rule:evenodd; clip-rule:evenodd"
viewBox="0 0 807.14 852.52"
 xmlns:xlink="http://www.w3.org/1999/xlink"
 xmlns:xodm="http://www.corel.com/coreldraw/odm/2003">
 <defs>
  <style type="text/css">
   <![CDATA[
    .fil1 {fill:#373435}
    .fil0 {fill:#373435}
   ]]>
  </style>
 </defs>
 <g id="Capa_x0020_1">
  <metadata id="CorelCorpID_0Corel-Layer"/>
  <g id="_2108518092528">
   <g>
    <path class="fil0" d="M403.51 630.23l-38.25 -38.25 376.62 -376.62 38.25 38.25 -376.62 376.62zm150.04 -603.2l19.13 -19.13c10.52,-10.52 27.73,-10.52 38.25,0l188.33 188.33c10.52,10.52 10.52,27.73 0,38.25l-19.13 19.13 -226.58 -226.58z"/>
    <path class="fil0" d="M497.58 159.47l38.25 -38.25 140.18 140.18 -39.48 14.66c-10.17,3.77 -20.94,1.42 -28.62,-6.25l-110.34 -110.34zm0 0l-19.13 -19.13c-10.52,-10.52 -10.52,-27.73 0,-38.25l65.17 -65.17 38.26 38.25 -84.3 84.3z"/>
    <path class="fil0" d="M582.26 354.14l-55.97 6.17c-8.46,0.93 -16.13,-1.76 -22.15,-7.78l-278.4 -278.4 53.77 -7.5c8.7,-1.21 16.71,1.47 22.92,7.68l279.82 279.82z"/>
    <path class="fil0" d="M393.44 543.68l-32.47 17.07c-10.68,5.62 -23.26,3.71 -31.79,-4.83l-321.28 -321.28c-10.52,-10.52 -10.52,-27.73 0,-38.25l19.13 -19.13 38.26 38.26 -38.25 -38.26 169.28 -169.28c10.52,-10.52 27.73,-10.52 38.25,0l19.13 19.13 -188.41 188.41 328.17 328.17z"/>
    <path class="fil0" d="M309.56 271.39l38.25 38.26 -65.17 65.17c-10.52,10.52 -27.73,10.52 -38.25,0l-19.13 -19.13 84.3 -84.3zm0 0l-38.25 38.25 -140.18 -140.18 49.77 -9.77c9.14,-1.79 17.81,0.85 24.4,7.43l104.26 104.26z"/>
   </g>
   <g>
    <path class="fil1" d="M466.06 751.59c-1.37,-3.65 -3.68,-6.07 -6.97,-7.27 -3.27,-1.19 -7.23,-1.78 -11.9,-1.78l-22.32 0c-8.01,0 -14.87,-4.23 -18.47,-11.38l-6.41 -12.74 57.09 0c11.17,0 19.8,3.09 25.9,9.28 6.1,6.18 9.31,14.15 9.66,23.89l0 57.26 -76.4 0c-4.72,0 -9.07,-1.43 -13.04,-4.26 -3.94,-2.86 -6.97,-6.62 -9.1,-11.29 -1.87,-4.11 -2.8,-8.46 -2.8,-13.07 0,-4.64 0.94,-8.98 2.8,-13.1 2.13,-4.67 5.16,-8.43 9.1,-11.26 3.97,-2.86 8.31,-4.29 13.04,-4.29l43.97 0 0.1 2.65c0.22,5.83 -1.73,10.92 -5.77,15.11 -4.04,4.2 -9.06,6.33 -14.89,6.33l-18.72 0c-1.25,0 -2.25,0.44 -2.95,1.28 -0.7,0.85 -1.08,1.96 -1.08,3.27 0,1.29 0.38,2.39 1.08,3.24 0.7,0.85 1.69,1.28 2.95,1.28l46.15 0 -1.02 -33.17z"/>
    <path class="fil1" d="M244.27 761.42l0 -27.6c0,-6.62 0.99,-12.75 2.97,-18.44 2.01,-5.66 4.93,-10.68 8.81,-15.08 3.88,-4.37 8.92,-7.82 15.17,-10.3 6.24,-2.48 13.36,-3.7 21.32,-3.7l73.92 0 -6.42 12.78c-3.6,7.16 -10.46,11.4 -18.48,11.4l-37.07 0c-2.57,0 -4.85,0.06 -6.86,0.2 -2.04,0.15 -4.29,0.44 -6.77,0.9 -2.48,0.47 -4.67,1.08 -6.56,1.84 -1.93,0.76 -3.82,1.84 -5.69,3.24 -1.9,1.4 -3.44,3.03 -4.67,4.93 -1.22,1.87 -2.22,4.2 -2.95,6.97 -0.73,2.74 -1.11,5.86 -1.11,9.34l0 19.4c0,3.47 0.38,6.59 1.11,9.36 0.73,2.77 1.72,5.11 2.95,6.97 1.23,1.87 2.77,3.53 4.67,4.9 1.87,1.4 3.76,2.48 5.69,3.27 1.9,0.76 4.08,1.37 6.56,1.84 2.48,0.44 4.73,0.76 6.77,0.87 2.01,0.15 4.29,0.23 6.86,0.23l30.6 0 -6.33 12.67c-3.59,7.18 -10.47,11.43 -18.49,11.43l-17.74 0c-7.96,0 -15.08,-1.23 -21.32,-3.7 -6.25,-2.48 -11.29,-5.92 -15.17,-10.27 -3.88,-4.35 -6.8,-9.36 -8.81,-15.05 -1.98,-5.66 -2.97,-11.79 -2.97,-18.41zm42.47 -1.81l6.33 -12.67c3.59,-7.18 10.47,-11.43 18.49,-11.43l55.95 0 0 52.66c0,11.39 -9.29,20.67 -20.67,20.67l-4.97 0 0 -49.24 -55.14 0z"/>
    <path class="fil1" d="M711.29 784.75c-2.1,0 -3.97,-0.09 -5.57,-0.26 -1.57,-0.17 -3.35,-0.56 -5.28,-1.17 -1.95,-0.58 -3.53,-1.43 -4.75,-2.51 -1.23,-1.08 -2.25,-2.6 -3.12,-4.58 -0.85,-1.96 -1.29,-4.32 -1.29,-7.03l0 -11.03c0,-2.74 0.44,-5.11 1.29,-7.09 0.88,-2.01 1.9,-3.56 3.12,-4.64 1.23,-1.08 2.8,-1.92 4.75,-2.51 1.93,-0.62 3.7,-0.99 5.28,-1.17 1.61,-0.17 3.47,-0.23 5.57,-0.23l18.12 0c2.1,0 3.97,0.06 5.54,0.23 1.61,0.18 3.35,0.58 5.28,1.2 1.9,0.64 3.47,1.49 4.73,2.57 1.25,1.08 2.31,2.63 3.12,4.58 0.82,1.95 1.25,4.31 1.25,7.06 0,11.81 1.54,54.98 -1.25,61.73 -0.82,1.98 -1.87,3.5 -3.12,4.58 -1.26,1.08 -2.83,1.93 -4.73,2.57 -1.93,0.61 -3.67,1.02 -5.28,1.2 -1.58,0.18 -3.44,0.26 -5.54,0.26l-22.67 0c-7.99,0 -14.84,4.21 -18.45,11.35l-6.4 12.66 57.44 0c11.5,0 20.33,-3.29 26.46,-9.86 6.13,-6.59 9.16,-14.97 9.16,-25.09l0 -64.09c0,-4.9 -0.73,-9.45 -2.22,-13.65 -1.46,-4.17 -3.65,-7.88 -6.54,-11.12 -2.86,-3.21 -6.59,-5.72 -11.2,-7.56 -4.58,-1.81 -9.8,-2.74 -15.67,-2.74l-37.28 0c-5.86,0 -11.12,0.93 -15.81,2.74 -4.67,1.84 -8.49,4.35 -11.43,7.56 -2.98,3.24 -5.22,6.94 -6.77,11.17 -1.52,4.2 -2.31,8.75 -2.31,13.59l0 20.33c0,4.9 0.76,9.45 2.25,13.62 1.46,4.2 3.64,7.91 6.53,11.12 2.86,3.21 6.6,5.75 11.17,7.56 4.61,1.84 9.83,2.74 15.7,2.74l20.34 0c11.39,0 20.67,-9.29 20.67,-20.67l0 -3.43 -31.09 0z"/>
    <g>
     <path class="fil1" d="M636.43 808.71l5.43 0.14 0.1 -123.82 -4.97 0c-11.38,0 -20.67,9.29 -20.67,20.68l-0 82.34c0,11.19 8.93,20.37 20.12,20.67z"/>
     <path class="fil1" d="M521.93 685.17l-5.42 -0.14 -0.1 123.82 4.97 0c11.39,0 20.67,-9.29 20.67,-20.67l0.01 -82.34c0,-11.19 -8.93,-20.37 -20.12,-20.67z"/>
     <path class="fil0" d="M546.39 702.91l57.88 46.8c5.03,4.07 7.66,9.47 7.66,15.76l0 25.5 -57.88 -46.8c-5.03,-4.07 -7.66,-9.47 -7.66,-15.76l0 -25.5z"/>
    </g>
    <g>
     <path class="fil1" d="M37.71 685.17l-5.42 -0.14 -0.09 103.13c-0.01,11.39 9.28,20.69 20.67,20.69l4.95 0 0 -103.01c0,-11.19 -8.93,-20.37 -20.12,-20.67z"/>
     <path class="fil1" d="M158.58 685.17l5.42 -0.14 0.08 103.13c0.01,11.39 -9.28,20.69 -20.67,20.69l-4.95 0 -0.01 -103.01c0,-11.19 8.93,-20.37 20.12,-20.67z"/>
     <path class="fil0" d="M97.67 808.85l-32.23 -49.05c-2.32,-3.52 -3.4,-7.14 -3.4,-11.35l0 -39.27 35.63 54.22 35.63 -54.22 0 39.27c0,4.21 -1.08,7.83 -3.4,11.35l-32.23 49.05z"/>
    </g>
    <g>
     <path class="fil1" d="M219.89 689.36l-14.19 14.06c-0.81,0.79 -2.1,0.8 -2.91,0.01 -4.77,-4.69 -9.54,-9.38 -14.31,-14.06 -0.41,-0.4 -0.62,-0.9 -0.62,-1.47 -0.01,-0.57 0.2,-1.07 0.61,-1.47l14.31 -14.15c0.81,-0.8 2.11,-0.79 2.91,0.01 4.73,4.71 9.46,9.43 14.2,14.14 0.4,0.4 0.61,0.9 0.61,1.47 0,0.57 -0.21,1.06 -0.61,1.47z"/>
     <path class="fil0" d="M191.41 808.85l4.88 0c11.39,0 20.67,-9.29 20.67,-20.67l0 -69.97 -4.88 0c-11.39,0 -20.67,9.29 -20.67,20.67l0 69.97z"/>
    </g>
   </g>
  </g>
 </g>
</svg>
